# xmcd
#
# Track frame offsets: 
#        150
#        18312
#        43318
#        62699
#        89590
#        106712
#        123053
#        140459
#        154009
#        177786
#        191260
#        208974
#        224846
#        245036
#        263506
#        279026
#        293537
#        311168
#        332774
#
# Disc length: 4687 seconds
#
# Revision: 0
# Processed by: cddbd v1.5.2PL0 Copyright (c) Steve Scherf et al.
# Submitted via: ExactAudioCopy v1.1
#
DISCID=15124d13
DTITLE=Various Artist - Nostalgie - Le Meilleur Du Top 1000 (2015) - CD 3
DYEAR=2015
DGENRE=Top 40
TTITLE0=Abba - Knowing Me, Knowing You
TTITLE1=Spandau Ballet - True
TTITLE2=Khaled - Aïcha
TTITLE3=10CC - I'm Not In Love
TTITLE4=Freeez - I.O.U.
TTITLE5=Chic - Good Times
TTITLE6=Zazie - Zen
TTITLE7=KC and The Sunshine Band - That's The Way (I Like It)
TTITLE8=Florent Pagny - Et Un Jour, Une Femme
TTITLE9=UB40 - Red Red Wine
TTITLE10=Ophélie Winter - Dieu M'A Donné La Foi
TTITLE11=Gala - Freed From Desire
TTITLE12=Christopher Cross - Ride Like The Wind
TTITLE13=Chaka Khan - I'm Every Woman
TTITLE14=Sixpence None The Richer - Kiss Me
TTITLE15=George McCrae - Rock Your Baby
TTITLE16=Pierre Bachelet - Elle Est D'Ailleurs
TTITLE17=Black - Wonderful Life
TTITLE18=Tina Turner - The Best
EXTD=
EXTT0=
EXTT1=
EXTT2=
EXTT3=
EXTT4=
EXTT5=
EXTT6=
EXTT7=
EXTT8=
EXTT9=
EXTT10=
EXTT11=
EXTT12=
EXTT13=
EXTT14=
EXTT15=
EXTT16=
EXTT17=
EXTT18=
PLAYORDER=
